HIERARCHY
ROOT Hips
{
	OFFSET 0.00000 0.00000 0.00000
	CHANNELS 6 Xposition Yposition Zposition Zrotation Yrotation Xrotation 
	JOINT LHipJoint
	{
		OFFSET 0 0 0
		CHANNELS 3 Zrotation Yrotation Xrotation
		JOINT LeftUpLeg
		{
			OFFSET 1.53139 -1.83434 0.76626
			CHANNELS 3 Zrotation Yrotation Xrotation
			JOINT LeftLeg
			{
				OFFSET 2.56112 -7.03663 0.00000
				CHANNELS 3 Zrotation Yrotation Xrotation
				JOINT LeftFoot
				{
					OFFSET 2.59983 -7.14299 0.00000
					CHANNELS 3 Zrotation Yrotation Xrotation
					JOINT LeftToeBase
					{
						OFFSET 0.13742 -0.37757 2.00054
						CHANNELS 3 Zrotation Yrotation Xrotation
						End Site
						{
							OFFSET 0.00000 -0.00000 1.02897
						}
					}
				}
			}
		}
	}
	JOINT RHipJoint
	{
		OFFSET 0 0 0
		CHANNELS 3 Zrotation Yrotation Xrotation
		JOINT RightUpLeg
		{
			OFFSET -1.40122 -1.83435 0.76627
			CHANNELS 3 Zrotation Yrotation Xrotation
			JOINT RightLeg
			{
				OFFSET -2.54052 -6.98003 0.00000
				CHANNELS 3 Zrotation Yrotation Xrotation
				JOINT RightFoot
				{
					OFFSET -2.63179 -7.23079 0.00000
					CHANNELS 3 Zrotation Yrotation Xrotation
					JOINT RightToeBase
					{
						OFFSET -0.24131 -0.66299 2.03908
						CHANNELS 3 Zrotation Yrotation Xrotation
						End Site
						{
							OFFSET -0.00000 -0.00000 1.07391
						}
					}
				}
			}
		}
	}
	JOINT LowerBack
	{
		OFFSET 0 0 0
		CHANNELS 3 Zrotation Yrotation Xrotation
		JOINT Spine
		{
			OFFSET 0.01174 2.10302 -0.29778
			CHANNELS 3 Zrotation Yrotation Xrotation
			JOINT Spine1
			{
				OFFSET 0.00772 2.13227 -0.01247
				CHANNELS 3 Zrotation Yrotation Xrotation
				JOINT Neck
				{
					OFFSET 0 0 0
					CHANNELS 3 Zrotation Yrotation Xrotation
					JOINT Neck1
					{
						OFFSET -0.09219 1.60848 0.31481
						CHANNELS 3 Zrotation Yrotation Xrotation
						JOINT Head
						{
							OFFSET 0.13974 1.65456 -0.31134
							CHANNELS 3 Zrotation Yrotation Xrotation
							End Site
							{
								OFFSET 0.04742 1.69515 -0.14578
							}
						}
					}
				}
				JOINT LeftShoulder
				{
					OFFSET 0 0 0
					CHANNELS 3 Zrotation Yrotation Xrotation
					JOINT LeftArm
					{
						OFFSET 3.24909 1.02882 -0.23993
						CHANNELS 3 Zrotation Yrotation Xrotation
						JOINT LeftForeArm
						{
							OFFSET 5.32955 -0.00000 -0.00000
							CHANNELS 3 Zrotation Yrotation Xrotation
							JOINT LeftHand
							{
								OFFSET 3.69232 -0.00000 -0.00000
								CHANNELS 3 Zrotation Yrotation Xrotation
								JOINT LeftFingerBase
								{
									OFFSET 0 0 0
									CHANNELS 3 Zrotation Yrotation Xrotation
									JOINT LeftHandIndex1
									{
										OFFSET 0.53660 -0.00000 -0.00000
										CHANNELS 3 Zrotation Yrotation Xrotation
										End Site
										{
											OFFSET 0.43262 -0.00000 -0.00000
										}
									}
								}
								JOINT LThumb
								{
									OFFSET 0 0 0
									CHANNELS 3 Zrotation Yrotation Xrotation
									End Site
									{
										OFFSET 0.43922 -0.00000 0.43922
									}
								}
							}
						}
					}
				}
				JOINT RightShoulder
				{
					OFFSET 0 0 0
					CHANNELS 3 Zrotation Yrotation Xrotation
					JOINT RightArm
					{
						OFFSET -3.21387 0.93002 -0.34594
						CHANNELS 3 Zrotation Yrotation Xrotation
						JOINT RightForeArm
						{
							OFFSET -5.23431 -0.00000 0.00000
							CHANNELS 3 Zrotation Yrotation Xrotation
							JOINT RightHand
							{
								OFFSET -3.55301 -0.00000 -0.00000
								CHANNELS 3 Zrotation Yrotation Xrotation
								JOINT RightFingerBase
								{
									OFFSET 0 0 0
									CHANNELS 3 Zrotation Yrotation Xrotation
									JOINT RightHandIndex1
									{
										OFFSET -0.77252 -0.00000 -0.00000
										CHANNELS 3 Zrotation Yrotation Xrotation
										End Site
										{
											OFFSET -0.62283 -0.00000 -0.00000
										}
									}
								}
								JOINT RThumb
								{
									OFFSET 0 0 0
									CHANNELS 3 Zrotation Yrotation Xrotation
									End Site
									{
										OFFSET -0.63234 -0.00000 0.63234
									}
								}
							}
						}
					}
				}
			}
		}
	}
}
MOTION
Frames: 11
Frame Time: 0.0408163
0.00 0.00 0.00 0 0 0 0 0 0 -21 0 0 0 0 0 0 0 0 0 0 0 0 0 0 21 0 0 0 0 0 0 0 0 0 0 0 0 0 0 0 0 0 0 0 0 0 0 -16 0 0 21 0 0 11 0 0 0 -8 0 0 0 0 0 0 0 0 0 0 0 0 0 0 0 0 0 0 0 0 8 0 0 0 0 0 0 0 0 0 0 0 0 0 0 0 0 0
0.00 0.00 0.00 -0.6252 -46.6747 -0.7960 0.0000 0.0000 0.0000 -14.7631 -4.3332 -23.9179 1.4767 7.6785 21.7418 0.0230 -0.1554 -2.8131 0.2788 -3.3959 -9.3831 0.0000 0.0000 0.0000 26.4205 -3.1418 4.9436 -0.7711 -5.6071 15.6485 -0.6140 11.0527 -14.9316 -0.3298 -3.6911 10.2092 3.4242 1.2862 11.1610 0.9200 2.1813 0.4431 -1.3082 0.9850 -5.7069 -11.9552 -3.6569 -19.3074 5.0507 -3.2797 33.6333 3.5660 -2.3510 15.3588 -0.0000 -0.0000 0.0000 -89.1774 5.3509 21.5419 14.7504 -23.7973 -3.1245 -0.0000 -0.0000 2.1493 18.2191 26.2318 8.2777 -7.1250 0.0000 -0.0000 -12.9035 56.9296 -3.8156 -0.0000 -0.0000 0.0000 89.8282 -8.5994 10.3274 -16.5617 26.2763 -3.8913 0.0000 0.0000 6.0389 -12.9329 7.1855 -1.6453 7.1250 -0.0000 -0.0000 10.1193 -22.6407 5.5283
0.00 0.00 0.00 1.7371 -53.6655 1.1425 0.0000 0.0000 0.0000 -21.7182 -1.2718 -17.1927 1.0717 6.5809 18.4794 0.0078 1.4327 -2.7782 0.0020 0.2888 0.7934 0.0000 0.0000 0.0000 18.2114 -1.5625 7.5559 -2.0150 -8.8972 25.4743 0.4703 13.4448 -1.4364 -0.0094 -0.6249 1.7172 0.7203 2.3569 10.3510 -0.2945 3.1921 0.1172 -1.1902 1.5417 -5.6248 -10.5664 -1.3216 -20.0949 2.2946 0.7771 36.6209 2.9673 -1.0289 16.5808 -0.0000 -0.0000 0.0000 -88.7394 3.4770 25.9729 14.2878 -23.1446 -2.9403 -0.0000 -0.0000 7.2028 18.7701 26.8544 8.7277 -7.1250 0.0000 -0.0000 -12.6588 57.6658 -3.9676 -0.0000 -0.0000 0.0000 89.3223 -9.5408 12.5711 -17.3813 27.3577 -4.2611 0.0000 0.0000 5.3455 -13.0963 7.3778 -1.7111 7.1250 -0.0000 -0.0000 9.9905 -22.4410 5.5021
0.00 0.00 0.00 4.2335 -54.6229 -1.2674 0.0000 0.0000 0.0000 -24.7979 1.8454 -13.7282 0.8330 5.8225 16.2703 0.0513 0.1549 -4.3354 0.0203 0.9195 2.5273 0.0000 0.0000 0.0000 14.3594 0.2933 -0.0311 -4.8822 -13.2499 40.3114 0.2098 11.7543 13.3835 -0.2567 -3.2598 9.0028 -1.6436 2.4712 10.7749 -0.3158 3.0474 0.3559 0.1199 1.5305 -5.7386 -10.7011 -1.0541 -19.7344 1.9254 1.2974 37.3365 2.9355 -0.9402 16.8309 0.0000 0.0000 0.0000 -88.2440 3.6032 28.6130 15.3460 -24.6259 -3.3688 -0.0000 -0.0000 1.2248 17.6956 26.6023 8.1309 -7.1250 0.0000 -0.0000 -13.6523 57.1851 -4.1274 0.0000 0.0000 0.0000 88.1661 -9.3223 13.9762 -18.6979 29.0416 -4.8833 0.0000 0.0000 5.9833 -13.3989 7.4257 -1.7634 7.1250 -0.0000 -0.0000 9.7686 -22.3821 5.3896
0.00 0.00 0.00 8.3834 -55.8262 -5.5449 0.0000 0.0000 0.0000 -28.4305 5.3947 -8.1111 0.3729 3.9221 10.8575 0.0523 -0.0826 -4.2896 0.0010 0.2025 0.5565 0.0000 0.0000 0.0000 10.5049 4.6019 -7.5718 -8.7607 -16.6512 55.2586 -0.2463 9.8446 17.5144 -0.0250 1.0201 -2.8042 -3.9212 2.6996 10.8263 -1.2068 3.0180 1.2113 0.4922 1.5380 -4.9387 -10.8096 -0.7853 -19.3648 2.1329 1.5896 37.4246 3.0994 -0.8156 16.7504 0.0000 -0.0000 0.0000 -86.1930 1.3007 30.6837 15.4368 -24.7511 -3.4067 -0.0000 -0.0000 1.8825 17.3520 26.0101 7.8022 -7.1250 0.0000 -0.0000 -13.6894 56.5289 -3.9204 0.0000 -0.0000 0.0000 88.5407 -7.6467 15.1267 -20.4123 31.1358 -5.7430 0.0000 0.0000 4.3119 -14.8121 7.5815 -1.9982 7.1250 -0.0000 -0.0000 8.7363 -22.1707 4.8487
0.00 0.00 0.00 8.3191 -54.8915 -6.2812 0.0000 0.0000 0.0000 -29.2706 5.9458 -4.0552 0.4045 4.0829 11.3099 0.1567 -0.4061 -7.3413 0.0000 0.0039 0.0107 0.0000 0.0000 0.0000 10.2593 6.1111 -16.5467 -11.7219 -18.2706 65.1046 -0.0047 1.5467 2.6551 -0.0381 -1.2595 3.4632 -3.6929 1.6906 11.1929 -1.3706 1.6814 1.4508 0.3934 0.8675 -4.8241 -10.3822 -0.1256 -18.7071 1.3671 2.5891 38.2299 2.8731 -0.5239 16.9507 0.0000 -0.0000 0.0000 -84.7979 -0.9610 28.4087 14.7124 -23.7440 -3.1092 -0.0000 -0.0000 3.3798 19.3821 26.2536 8.8454 -7.1250 0.0000 -0.0000 -11.6913 57.1990 -3.5264 0.0000 -0.0000 0.0000 89.0152 -7.0907 15.8223 -22.4669 33.5006 -6.8417 0.0000 0.0000 3.2278 -14.5924 6.5347 -1.6970 7.1250 -0.0000 -0.0000 8.9413 -23.2469 4.7423
0.00 0.00 0.00 7.7727 -51.5705 -5.4247 0.0000 0.0000 0.0000 -30.2615 4.7753 0.1977 0.6778 5.2643 14.6640 0.4657 -1.0862 -12.5595 0.1364 -2.3802 -6.5575 0.0000 0.0000 0.0000 11.8446 6.6962 -29.1555 -7.5406 -15.7707 50.8905 -0.3030 -1.2800 -10.9433 -0.1100 -2.1385 5.8886 -4.3545 0.5471 12.5244 -0.6676 0.0540 1.7072 1.7493 0.0872 -5.2340 -10.8092 -0.3502 -18.4311 1.0865 2.4622 37.4836 2.7775 -0.6267 16.5118 0.0000 -0.0000 0.0000 -84.2727 -4.4637 30.8970 15.9444 -25.4452 -3.6221 -0.0000 -0.0000 2.1655 19.3703 26.5730 8.9378 -7.1250 0.0000 -0.0000 -11.8708 57.5158 -3.6727 0.0000 -0.0000 0.0000 87.3840 -7.3878 19.7400 -23.6612 34.8039 -7.5123 0.0000 0.0000 1.9156 -14.9884 7.0137 -1.8724 7.1250 -0.0000 -0.0000 8.6305 -22.7441 4.6744
0.00 0.00 0.00 7.8996 -48.6045 -3.8182 0.0000 0.0000 0.0000 -30.4032 6.3869 8.3244 0.0456 1.3782 3.7902 0.2667 -1.2934 -9.3872 0.2836 -3.4247 -9.4636 0.0000 0.0000 0.0000 13.0781 6.1045 -31.6399 -2.0860 -9.0430 25.9298 0.0139 -2.0996 -0.9241 -0.1553 -2.5389 6.9976 -4.8603 0.1607 12.0586 -0.5452 -0.4844 1.8626 2.2491 -0.1792 -4.7726 -10.9071 -0.9513 -18.2897 1.6852 1.3300 37.9006 2.8617 -1.0353 16.7760 -0.0000 -0.0000 0.0000 -83.6271 -6.0477 36.7203 17.5438 -27.5691 -4.3360 -0.0000 -0.0000 0.9645 18.8532 26.4657 8.6527 -7.1250 0.0000 -0.0000 -12.3612 57.2972 -3.7620 -0.0000 -0.0000 0.0000 87.7009 -7.0776 18.1737 -21.4068 32.3001 -6.2659 0.0000 0.0000 3.1988 -13.5523 7.8909 -1.8954 7.1250 -0.0000 -0.0000 9.6356 -21.9055 5.4203
0.00 0.00 0.00 5.3027 -39.1365 -0.6243 0.0000 0.0000 0.0000 -24.2215 1.6814 4.7612 2.8762 10.4918 30.5846 0.1584 -5.6230 11.6168 0.7350 -5.4770 -15.2742 0.0000 0.0000 0.0000 16.9355 4.2183 -25.2686 -2.0268 -8.9216 25.5504 -0.0032 -1.7520 -2.7900 -0.4916 -4.4955 12.4749 -1.3681 -0.5008 12.9004 1.8363 -0.7997 2.6953 2.8299 -0.3918 -4.3521 -12.2814 -2.0338 -15.2678 1.1565 -0.1062 39.3374 2.6106 -1.9438 16.9787 0.0000 0.0000 0.0000 -85.4838 -0.1941 47.1763 23.6008 -34.7392 -7.4778 -0.0000 -0.0000 6.3827 17.8874 25.9694 8.0443 -7.1250 0.0000 -0.0000 -13.1113 56.6000 -3.7734 0.0000 0.0000 0.0000 86.0137 -6.9851 11.5676 -15.0267 24.1833 -3.2369 0.0000 0.0000 6.5717 -13.7860 6.7277 -1.6465 7.1250 -0.0000 -0.0000 9.5219 -23.0764 5.0962
0.00 0.00 0.00 1.8393 -36.3763 0.8448 0.0000 0.0000 0.0000 -18.7541 -0.8107 -5.6479 6.6039 14.9891 47.3599 0.2037 -10.0345 17.2001 0.2827 -3.4193 -9.4484 0.0000 0.0000 0.0000 21.0286 0.5684 -20.0941 -1.7058 -8.2243 23.3975 -0.0758 -1.6550 -6.0873 -0.4843 -4.4623 12.3811 1.5051 -0.4616 13.8800 3.1723 -0.2925 3.0625 2.5366 -0.1776 -4.5391 -13.1275 -2.7502 -14.3413 1.6075 -1.2495 39.9640 2.7671 -2.4926 17.2311 -0.0000 0.0000 0.0000 -84.6152 0.8213 53.7157 27.3827 -38.5417 -9.7366 -0.0000 -0.0000 4.5858 13.0761 24.9968 5.6056 -7.1250 0.0000 -0.0000 -17.4883 54.6943 -4.2622 -0.0000 0.0000 0.0000 83.2660 -5.8119 16.4272 -16.0141 25.5397 -3.6520 0.0000 0.0000 5.9209 -11.8249 8.3230 -1.7359 7.1250 -0.0000 -0.0000 10.8577 -21.5351 6.2245
0.00 0.00 0.00 -1.7286 -37.9533 5.1133 0.0000 0.0000 0.0000 -11.5162 -12.5945 -21.1196 0.1869 2.7845 7.6795 -0.4314 12.0117 -7.9760 0.7491 -5.5282 -15.4214 0.0000 0.0000 0.0000 25.1146 -2.0278 -11.5507 -2.6211 -10.0548 29.1542 -1.1367 1.2636 -19.7749 -0.0762 -1.7806 4.8996 4.1562 1.7762 14.6747 3.1719 3.0154 3.8950 0.4542 1.4231 -4.0495 -13.1320 -3.4747 -12.8205 2.9820 -3.0932 39.8592 3.0815 -3.0184 16.9898 -0.0000 0.0000 0.0000 -86.3940 -1.2816 49.5700 31.8103 -42.3954 -12.6127 -0.0000 -0.0000 1.4782 17.7667 26.2620 8.0696 -7.1250 0.0000 -0.0000 -13.3926 56.8642 -3.9425 -0.0000 0.0000 0.0000 75.6859 10.0633 18.0263 -26.9430 38.1248 -9.4639 0.0000 -0.0000 -0.7691 -14.6585 6.8363 -1.7834 7.1250 -0.0000 -0.0000 8.8791 -22.9370 4.7725
